<?xml version="1.0" standalone="no"?><!DOCTYPE svg PUBLIC "-//W3C//DTD SVG 1.1//EN" "http://www.w3.org/Graphics/SVG/1.1/DTD/svg11.dtd"><svg t="1626196678171" class="icon" viewBox="0 0 1024 1024" version="1.1" xmlns="http://www.w3.org/2000/svg" p-id="21325" xmlns:xlink="http://www.w3.org/1999/xlink" width="200" height="200"><defs><style type="text/css"></style></defs><path d="M909.360762 349.281524V139.264C909.360762 62.415238 843.288381 0 761.270857 0H172.470857C91.038476 0 24.380952 62.415238 24.380952 139.849143v695.832381c0 77.385143 66.072381 139.800381 148.089905 139.800381H316.952381v-70.217143H172.470857c-41.301333 0-74.361905-31.207619-74.361905-70.217143V139.897905c0-38.473143 33.645714-70.217143 74.361905-70.217143h588.8c41.301333 0 74.313143 31.207619 74.313143 69.632v210.602667h73.776762v-0.585143z m-118.588952 117.028571h104.399238l-421.790477 398.287238-51.931428-49.005714 73.142857 8.338286-8.289524 64.658285c-1.755429 12.775619 1.219048 15.018667 14.189714 13.360762l68.461715-7.801904 8.825905 69.046857-51.931429-49.005715 421.839238-398.336v98.645334l-156.915809-148.236191z m52.516571-49.590857L999.619048 564.321524l-421.790477 398.336-68.461714 7.801905c-60.806095 6.680381-103.862857-33.450667-96.207238-90.794667l8.289524-64.658286 421.790476-398.287238zM282.770286 278.528h368.737524c20.675048 0 37.205333-15.60381 37.205333-35.108571 0-19.504762-16.579048-35.108571-37.205333-35.108572H282.819048c-20.626286 0-37.156571 15.60381-37.156572 35.108572 0 19.504762 16.530286 35.108571 37.156572 35.108571z m0 208.944762h295.009524c20.675048 0 37.156571-15.60381 37.156571-35.108572 0-19.504762-16.481524-35.108571-37.156571-35.108571H282.819048c-20.626286 0-37.156571 15.60381-37.156572 35.108571 0 19.504762 16.530286 35.108571 37.156572 35.108572z m0 208.896h73.776762c20.626286 0 37.156571-15.60381 37.156571-35.108572 0-19.504762-16.530286-35.108571-37.156571-35.108571H282.770286c-20.626286 0-37.156571 15.60381-37.156572 35.108571 0 19.504762 16.530286 35.108571 37.156572 35.108572z" p-id="21326"></path></svg>