<?xml version="1.0" standalone="no"?><!DOCTYPE svg PUBLIC "-//W3C//DTD SVG 1.1//EN" "http://www.w3.org/Graphics/SVG/1.1/DTD/svg11.dtd"><svg t="1626196696480" class="icon" viewBox="0 0 1024 1024" version="1.1" xmlns="http://www.w3.org/2000/svg" p-id="21498" xmlns:xlink="http://www.w3.org/1999/xlink" width="200" height="200"><defs><style type="text/css"></style></defs><path d="M984.762165 946.072584H77.938166v-230.58947a38.517579 38.517579 0 0 0 18.651409-6.546806l221.881896-150.393785 200.553714 132.000378a38.700331 38.700331 0 0 0 49.557923-5.912551l384.756538-412.083271a38.702481 38.702481 0 0 0-56.577733-52.825952L534.301066 607.939195 339.41265 479.679849a38.700331 38.700331 0 0 0-43.000367 0.290252L77.938166 628.106367V39.237835a38.700331 38.700331 0 1 0-77.400661 0v945.53508a38.700331 38.700331 0 0 0 38.70033 38.70033h945.52433a38.700331 38.700331 0 0 0 0-77.400661z" p-id="21499"></path></svg>